<?xml version="1.0" encoding="UTF-8"?><svg id="Layer_1" xmlns="http://www.w3.org/2000/svg" viewBox="0 0 285.89 285.89"><defs><style>.cls-1{fill:#000003;}.cls-2{fill:#e67f67;}.cls-3{fill:none;}</style></defs><path class="cls-1" d="M232.55,217.73l.68.34c-4.05,7.76-16.19,23.96-20.58,23.96-11.13,0-16.19-6.75-19.91-14.51-2.36-5.4-3.71-14.85-3.71-28.68.34-12.15,0-23.96,0-35.76-.67-24.97-1.35-49.6-1.35-73.89-1.69-5.74,4.39-8.77,14.17-13.5-1.01.34-2.7.34-3.71.34h-1.01c-.34,0-.68-.34-1.01-.34h-.67c-9.11-1.69-20.92-8.1-29.35-5.4-12.48,2.7-12.15,30.37-12.15,41.5,0,2.36-.68,5.06-.68,7.09,0,13.16.34,25.3.34,37.11l1.01,5.06c3.37,5.06,9.11,10.46,9.11,14.85-3.04,3.71-8.43,6.07-9.78,9.45v30.37c0,2.02,0,4.72-.34,6.75-1.01,5.74-5.4,16.87-10.12,18.89-6.07-1.35-18.89-12.14-30.03-23.95-.34-.34-.67-1.01-1.35-1.35l-12.82-6.41,3.71-4.05s-1.69-1.35-2.36-2.02c-8.1-8.43-17.21-15.86-25.64-18.89-8.77-3.37-16.87-1.69-23.96,2.7-11.13,7.09-2.02,20.92,9.78,26.99-36.44-12.15-12.48-41.5,7.09-50.61,6.75-6.07,32.73-12.82,41.16-15.52,1.01.34,2.36.68,3.37,1.01,2.7,1.69,3.71,2.7,6.07,5.06,5.4-5.74,8.43-32.73,2.02-42.51.34-.34,1.01-.34,3.71-2.36,1.35-21.26-10.12-87.39-38.46-59.04-15.18,15.18,28.34,44.2,26.65,65.45-1.35,12.15-28,31.72-35.76,30.7-7.76-4.05-30.37-25.64-36.44-25.3-3.71-.34-8.43,2.02-11.13,4.39-1.35,1.35-2.36,2.36-3.04,3.37-3.04-3.04,10.8-29.35,26.65-23.62,8.77,4.05,55.67,48.25,41.16,14.85-12.82-29.69-49.26-37.79-8.43-75.58,12.15-11.13,24.63-20.92,43.19-8.1,19.23,12.15,17.21,75.91,17.54,102.23,0,2.7-7.76,14.17-23.96,19.91,3.37,3.71,6.75,6.75,9.78,6.75,7.09,2.02,14.17-5.73,14.51-5.73-1.69,4.72-20.24,25.3-26.99,20.24-14.17-8.43-14.17-18.22-27.67-20.58-3.37-.68-7.76,1.01-10.12,2.02,21.26,3.04,44.54,48.59,69.5,59.04v-30.37c-.34-.34.68-3.37,0-4.05-1.01-.68-2.36-1.35-3.37-2.03-2.02-3.04-4.05-6.41-6.07-9.45-3.04-3.37,7.09-4.05,9.11-15.52-.34-51.28-3.71-78.28,14.17-114.71,1.69-3.37,2.7-6.07,3.37-6.41.34,0,1.35,0,1.01.34-.67,2.02-.67,2.36,0,2.36,2.7,1.35,6.41,2.36,6.41,2.36,8.77,3.37,42.85,14.85,51.28,2.7,2.36-3.04-8.43,14.17-10.12,15.52-.68,1.01-1.01,1.69-1.69,2.36q-.34,0-.34.34c-.34.34-3.04,126.19-.67,143.06,2.02,14.85,7.42,19.91,18.22,10.8Z"/><path class="cls-2" d="M24.43,160.91l.1-1.37v-.43l-.19-.85c-.1-.21-.29-.53-.48-.64l-1.14-.95-1.43-1.58.29-1.27.67-1.69,1.14-1.16c.1-.11.19,0,.19-.11l.38-.64c.19-.21.29-.53.29-.74v-1.48l.29-2.75.67-1.37,1.9-.32,1.81.21c.19,0,.47,0,.57-.1l.86-.43q.1-.11.19-.11l1.14-1.05,1.33-1.27,1.24.32,1.71,1.27,1.14,1.27c.19.21.48.42.76.42l1.71.11,2.47.53,1.05,1.8-.1,1.48v.43l.38,1.47c0,.11.1.22.1.32l.48.85,2.09,3.17-1.14,2.12-1.43,1.9c-.19.32-.38.53-.38.85v2.22l-.95,2.11-1.62.74h-1.72l-.76.21c-.38.11-.57.11-.76.43l-.67.85-1.24,1.59-1.71.95-2.38-1.48-1.33-1.37c-.19-.21-.48-.32-.76-.32h-1.05l-2.86-.64-.86-1.37v-2.12Z"/><path class="cls-2" d="M234.51,160.91l.1-1.37v-.43l-.19-.85c-.1-.21-.29-.53-.48-.64l-1.14-.95-1.43-1.58.29-1.27.67-1.69,1.14-1.16c.1-.11.19,0,.19-.11l.38-.64c.19-.21.29-.53.29-.74v-1.48l.29-2.75.67-1.37,1.9-.32,1.81.21c.19,0,.47,0,.57-.1l.86-.43q.1-.11.19-.11l1.14-1.05,1.33-1.27,1.24.32,1.71,1.27,1.14,1.27c.19.21.48.42.76.42l1.71.11,2.47.53,1.05,1.8-.1,1.48v.43l.38,1.47c0,.11.1.22.1.32l.48.85,2.09,3.17-1.14,2.12-1.43,1.9c-.19.32-.38.53-.38.85v2.22l-.95,2.11-1.62.74h-1.72l-.76.21c-.38.11-.57.11-.76.43l-.67.85-1.24,1.59-1.71.95-2.38-1.48-1.33-1.37c-.19-.21-.48-.32-.76-.32h-1.05l-2.86-.64-.86-1.37v-2.12Z"/><circle class="cls-3" cx="142.95" cy="142.95" r="142.95"/></svg>