<?xml version="1.0" encoding="UTF-8"?>
<svg id="Layer_1" xmlns="http://www.w3.org/2000/svg" version="1.1" xmlns:xlink="http://www.w3.org/1999/xlink" viewBox="0 0 825.46 495.37">
  <!-- Generator: Adobe Illustrator 30.3.0, SVG Export Plug-In . SVG Version: 2.1.3 Build 182)  -->
  <defs>
    <style>
      .st0 {
        font-family: AbidingLoveSerif, 'Abiding Love Serif';
      }

      .st0, .st1, .st2 {
        isolation: isolate;
      }

      .st0, .st2 {
        fill: #ffa07b;
        font-size: 263.57px;
      }

      .st1 {
        filter: url(#drop-shadow-1);
      }

      .st3 {
        fill: none;
      }

      .st2 {
        font-family: Echoes-Regular, Echoes;
      }

      .st4 {
        fill: #0e0a0a;
      }

      .st5 {
        fill: #ff743e;
      }
    </style>
    <filter id="drop-shadow-1">
      <feOffset dx="7" dy="7"/>
      <feGaussianBlur result="blur" stdDeviation="5"/>
      <feFlood flood-color="#f96" flood-opacity=".75"/>
      <feComposite in2="blur" operator="in"/>
      <feComposite in="SourceGraphic"/>
    </filter>
  </defs>
  <rect class="st4" x="11.79" y="10.95" width="801.88" height="479.37"/>
  <path class="st5" d="M106.72,277.78l.24-3.48v-1.08l-.48-2.14c-.24-.53-.72-1.33-1.21-1.61l-2.89-2.41-3.63-4.01.72-3.22,1.69-4.28,2.89-2.95c.24-.27.48,0,.48-.27l.97-1.61c.48-.53.72-1.33.72-1.86v-3.76l.72-6.97,1.69-3.48,4.82-.8,4.59.53c.48,0,1.2,0,1.44-.26l2.17-1.08c.16-.18.32-.27.48-.27l2.9-2.68,3.37-3.22,3.14.8,4.34,3.22,2.9,3.22c.48.53,1.21,1.06,1.93,1.06l4.34.27,6.27,1.33,2.66,4.56-.24,3.76v1.08l.97,3.74c0,.27.24.55.24.8l1.21,2.16,5.31,8.03-2.9,5.36-3.62,4.81c-.48.8-.97,1.33-.97,2.14v5.64l-2.41,5.34-4.1,1.88h-4.35l-1.93.53c-.97.27-1.45.27-1.93,1.08l-1.69,2.14-3.14,4.03-4.34,2.4-6.03-3.76-3.38-3.48c-.48-.53-1.21-.8-1.93-.8h-2.65l-7.24-1.61-2.17-3.48v-5.36h0Z"/>
  <path class="st5" d="M663.53,277.78l.24-3.48v-1.08l-.48-2.14c-.24-.53-.72-1.33-1.21-1.61l-2.89-2.41-3.63-4.01.72-3.22,1.69-4.28,2.89-2.95c.24-.27.48,0,.48-.27l.97-1.61c.48-.53.72-1.33.72-1.86v-3.76l.72-6.97,1.69-3.48,4.82-.8,4.59.53c.48,0,1.2,0,1.44-.26l2.17-1.08c.16-.18.32-.27.48-.27l2.9-2.68,3.37-3.22,3.14.8,4.34,3.22,2.9,3.22c.48.53,1.21,1.06,1.93,1.06l4.34.27,6.27,1.33,2.66,4.56-.24,3.76v1.08l.97,3.74c0,.27.24.55.24.8l1.21,2.16,5.31,8.03-2.9,5.36-3.62,4.81c-.48.8-.97,1.33-.97,2.14v5.64l-2.41,5.34-4.1,1.88h-4.35l-1.93.53c-.97.27-1.45.27-1.93,1.08l-1.69,2.14-3.14,4.03-4.34,2.4-6.03-3.76-3.38-3.48c-.48-.53-1.21-.8-1.93-.8h-2.65l-7.24-1.61-2.17-3.48v-5.36h0Z"/>
  <g class="st1">
    <text class="st0" transform="translate(202.14 330.91)"><tspan x="0" y="0">4</tspan></text>
    <text class="st2" transform="translate(346.14 330.91)"><tspan x="0" y="0">0</tspan></text>
    <text class="st0" transform="translate(474.5 330.91)"><tspan x="0" y="0">4</tspan></text>
  </g>
  <rect class="st3" width="731.06" height="448.81"/>
</svg>